_________________________  Visit us at _________________________
  
http://p2pdl.com  ____________________________  http://p2pdl.com

21 And Over 2013 WEBRip 480p x264 AAC - VYTO

Genre: Comedy
Plot: The night before his big medical school 
interview, a promising student celebrates his 
21st birthday with his two best friends
Director: Jon Lucas, Scott Moore
Stars: Miles Teller, Justin Chon, Sarah Wright
Rated: Rated R for crude and sexual content, 
pervasive language, some graphic nudity, 
drugs and drinking

Info: 
http://www.imdb.com/title/tt1711425/

General
Complete name                  : 21 And Over 2013 WEBRip 480p x264 AAC - VYTO.mp4
Format                         : MPEG-4
File size                      : 304 MiB
Duration                       : 1h 29mn
Overall bit rate mode          : Variable
Overall bit rate               : 477 Kbps

Video
Format                         : AVC
Format/Info                    : Advanced Video Codec
Format profile                 : High 10@L4.1
Bit rate                       : 434 Kbps
Width                          : 720 pixels
Height                         : 400 pixels
Display aspect ratio           : 16:9
Frame rate mode                : Constant
Frame rate                     : 25.000 fps
Bit depth                      : 10 bits
Stream size                    : 277 MiB (91%)
Writing library                : x264 core 130 r2273 b3065e6

Audio
Format                         : AAC
Format/Info                    : Advanced Audio Codec
Duration                       : 1h 29mn
Bit rate mode                  : Variable
Channel(s)                     : 2 channels
Channel positions              : Front: L R
Sampling rate                  : 48.0 KHz / 24.0 KHz
Stream size                    : 25.5 MiB (8%)


Subtitle                       : Yes (English)
Source                         : 1080p.WEB-DL.X264.AC3.5.1.HQ.Hive-CM8 (Thanks)

Screenshots:
 
http://www.ultraimg.com/images/dt7YG.jpg 
http://www.ultraimg.com/images/czaVf.jpg 
http://www.ultraimg.com/images/HYj2a.jpg 
http://www.ultraimg.com/images/9TGsX.jpg 
http://www.ultraimg.com/images/KnhML.jpg 
http://www.ultraimg.com/images/AkYX.jpg

----------------------------------------------------------------------------------------------------


Encoded using revolutionary 10bit encoding, which enables us to provide you more crispier 
and sharper images at small sizes, just make sure you follow our instructions without a fault.
Recommend to you to use latest version of VLC player. Install K-Lite Codec Pack or shark007 codecs
in case of any kind of problem in playback (For non-VLC Media Player users). Alternatively, install
Core AVC codecs, the fastest decoder that there is coupled with Community Center Codec Pack and play
on Windows Media Player Classic. Check sample to be sure.
Enjoy!

Encoder Notes:Looking For Early Access To Anything You Can Provide DVDScr, R5, DVDR, BluRay, Direct
Audio, Music Releases and Seedboxes. We require dedicated servers, so as to do more 
and fast releases of movies.
If You Got anything to offer please contact us at "prg@hush.com".

Face book Fan Page:   
http://www.fb.me/p2pdl